<svg xmlns="http://www.w3.org/2000/svg" width="1080" height="560" viewBox="0 0 1080 560" font-family="-apple-system,BlinkMacSystemFont,'PingFang SC','Hiragino Sans GB','Microsoft YaHei',sans-serif">
<title>VLA 模型谱系</title>
<rect width="1080" height="560" fill="#ffffff"/>
<defs><marker id="ah" viewBox="0 0 10 10" refX="9" refY="5" markerWidth="6" markerHeight="6" orient="auto-start-reverse"><path d="M0,0 L10,5 L0,10 z" fill="#8b949e"/></marker></defs>
<text x="24.0" y="34.0" font-size="19" fill="#1f2328" text-anchor="start" font-weight="700" opacity="1">图 3 · 社区在用的 VLA 模型谱系</text>
<text x="24.0" y="56.0" font-size="12" fill="#57606a" text-anchor="start" font-weight="400" opacity="1">虚线汇入处 = 社区最常拿来对照的基线；终点是本手册反复出现的主线矛盾</text>
<text x="24.0" y="82.0" font-size="13" fill="#1c7ed6" text-anchor="start" font-weight="700" opacity="1">Physical Intelligence · π 系列</text>
<rect x="24.0" y="92.0" width="162.8" height="52.0" rx="10" fill="#d0ebff" stroke="#1c7ed6" stroke-width="1.5"/>
<text x="105.4" y="114.0" font-size="14" fill="#1f2328" text-anchor="middle" font-weight="700" opacity="1">π0</text>
<text x="105.4" y="131.0" font-size="10" fill="#57606a" text-anchor="middle" font-weight="400" opacity="1">flow matching 出连续动作</text>
<path d="M186.8,118.0 L208.8,118.0" stroke="#8b949e" stroke-width="1.8" fill="none" marker-end="url(#ah)"/>
<rect x="208.8" y="92.0" width="150.0" height="52.0" rx="10" fill="#d0ebff" stroke="#1c7ed6" stroke-width="1.5"/>
<text x="283.8" y="114.0" font-size="14" fill="#1f2328" text-anchor="middle" font-weight="700" opacity="1">FAST</text>
<text x="283.8" y="131.0" font-size="10" fill="#57606a" text-anchor="middle" font-weight="400" opacity="1">动作 tokenizer</text>
<path d="M358.8,118.0 L380.8,118.0" stroke="#8b949e" stroke-width="1.8" fill="none" marker-end="url(#ah)"/>
<rect x="380.8" y="92.0" width="182.6" height="52.0" rx="10" fill="#d0ebff" stroke="#1c7ed6" stroke-width="1.5"/>
<text x="472.1" y="114.0" font-size="14" fill="#1f2328" text-anchor="middle" font-weight="700" opacity="1">π0.5</text>
<text x="472.1" y="131.0" font-size="10" fill="#57606a" text-anchor="middle" font-weight="400" opacity="1">泛化更强 · 社区主力 baseline</text>
<path d="M563.4,118.0 L585.4,118.0" stroke="#8b949e" stroke-width="1.8" fill="none" marker-end="url(#ah)"/>
<rect x="585.4" y="92.0" width="150.0" height="52.0" rx="10" fill="#d0ebff" stroke="#1c7ed6" stroke-width="1.5"/>
<text x="660.4" y="114.0" font-size="14" fill="#1f2328" text-anchor="middle" font-weight="700" opacity="1">π0.6</text>
<text x="660.4" y="131.0" font-size="10" fill="#57606a" text-anchor="middle" font-weight="400" opacity="1">RL 后训练</text>
<path d="M735.4,118.0 L757.4,118.0" stroke="#8b949e" stroke-width="1.8" fill="none" marker-end="url(#ah)"/>
<rect x="757.4" y="92.0" width="150.0" height="52.0" rx="10" fill="#d0ebff" stroke="#1c7ed6" stroke-width="1.5"/>
<text x="832.4" y="114.0" font-size="14" fill="#1f2328" text-anchor="middle" font-weight="700" opacity="1">π0.7</text>
<text x="832.4" y="131.0" font-size="10" fill="#57606a" text-anchor="middle" font-weight="400" opacity="1">reward + goal 扩数据</text>
<text x="24.0" y="208.0" font-size="13" fill="#2f9e44" text-anchor="start" font-weight="700" opacity="1">清华 TSAIL · RDT 系</text>
<rect x="24.0" y="218.0" width="150.0" height="52.0" rx="10" fill="#d3f9d8" stroke="#2f9e44" stroke-width="1.5"/>
<text x="99.0" y="240.0" font-size="14" fill="#1f2328" text-anchor="middle" font-weight="700" opacity="1">RDT-1B</text>
<text x="99.0" y="257.0" font-size="10" fill="#57606a" text-anchor="middle" font-weight="400" opacity="1">双臂扩散基础模型</text>
<path d="M174.0,244.0 L196.0,244.0" stroke="#8b949e" stroke-width="1.8" fill="none" marker-end="url(#ah)"/>
<rect x="196.0" y="218.0" width="153.2" height="52.0" rx="10" fill="#d3f9d8" stroke="#2f9e44" stroke-width="1.5"/>
<text x="272.6" y="240.0" font-size="14" fill="#1f2328" text-anchor="middle" font-weight="700" opacity="1">RDT2</text>
<text x="272.6" y="257.0" font-size="10" fill="#57606a" text-anchor="middle" font-weight="400" opacity="1">UMI 数据 · 零样本跨本体</text>
<text x="24.0" y="304.0" font-size="13" fill="#f59f00" text-anchor="start" font-weight="700" opacity="1">NVIDIA</text>
<rect x="24.0" y="314.0" width="173.3" height="52.0" rx="10" fill="#fff3bf" stroke="#f59f00" stroke-width="1.5"/>
<text x="110.6" y="336.0" font-size="14" fill="#1f2328" text-anchor="middle" font-weight="700" opacity="1">GR00T N1.5 / N1.7</text>
<text x="110.6" y="353.0" font-size="10" fill="#57606a" text-anchor="middle" font-weight="400" opacity="1">只取第 12 层特征存争议</text>
<text x="24.0" y="400.0" font-size="13" fill="#9c36b5" text-anchor="start" font-weight="700" opacity="1">国产厂商开源</text>
<rect x="24.0" y="410.0" width="150.0" height="52.0" rx="10" fill="#f3d9fa" stroke="#9c36b5" stroke-width="1.5"/>
<text x="99.0" y="432.0" font-size="14" fill="#1f2328" text-anchor="middle" font-weight="700" opacity="1">LingBot-VLA</text>
<text x="99.0" y="449.0" font-size="10" fill="#57606a" text-anchor="middle" font-weight="400" opacity="1">蚂蚁灵波</text>
<path d="M174.0,436.0 L196.0,436.0" stroke="#8b949e" stroke-width="1.8" fill="none" marker-end="url(#ah)"/>
<rect x="196.0" y="410.0" width="150.0" height="52.0" rx="10" fill="#f3d9fa" stroke="#9c36b5" stroke-width="1.5"/>
<text x="271.0" y="432.0" font-size="14" fill="#1f2328" text-anchor="middle" font-weight="700" opacity="1">UnifoLM-VLA-0</text>
<text x="271.0" y="449.0" font-size="10" fill="#57606a" text-anchor="middle" font-weight="400" opacity="1">宇树</text>
<path d="M346.0,436.0 L368.0,436.0" stroke="#8b949e" stroke-width="1.8" fill="none" marker-end="url(#ah)"/>
<rect x="368.0" y="410.0" width="159.5" height="52.0" rx="10" fill="#f3d9fa" stroke="#9c36b5" stroke-width="1.5"/>
<text x="447.7" y="432.0" font-size="14" fill="#1f2328" text-anchor="middle" font-weight="700" opacity="1">星海图 G0.5</text>
<text x="447.7" y="449.0" font-size="10" fill="#57606a" text-anchor="middle" font-weight="400" opacity="1">跨本体 action tokenizer</text>
<path d="M527.5,436.0 L549.5,436.0" stroke="#8b949e" stroke-width="1.8" fill="none" marker-end="url(#ah)"/>
<rect x="549.5" y="410.0" width="153.2" height="52.0" rx="10" fill="#f3d9fa" stroke="#9c36b5" stroke-width="1.5"/>
<text x="626.0" y="432.0" font-size="14" fill="#1f2328" text-anchor="middle" font-weight="700" opacity="1">Qwen-VLA</text>
<text x="626.0" y="449.0" font-size="10" fill="#57606a" text-anchor="middle" font-weight="400" opacity="1">硬件差异写成文本 prompt</text>
<text x="24.0" y="496.0" font-size="13" fill="#e8590c" text-anchor="start" font-weight="700" opacity="1">轻量 / 社区线</text>
<rect x="24.0" y="506.0" width="150.0" height="52.0" rx="10" fill="#ffe8cc" stroke="#e8590c" stroke-width="1.5"/>
<text x="99.0" y="528.0" font-size="14" fill="#1f2328" text-anchor="middle" font-weight="700" opacity="1">ACT</text>
<text x="99.0" y="545.0" font-size="10" fill="#57606a" text-anchor="middle" font-weight="400" opacity="1">适用桌面机械臂</text>
<path d="M174.0,532.0 L196.0,532.0" stroke="#8b949e" stroke-width="1.8" fill="none" marker-end="url(#ah)"/>
<rect x="196.0" y="506.0" width="150.0" height="52.0" rx="10" fill="#ffe8cc" stroke="#e8590c" stroke-width="1.5"/>
<text x="271.0" y="528.0" font-size="14" fill="#1f2328" text-anchor="middle" font-weight="700" opacity="1">SmolVLA</text>
<text x="271.0" y="545.0" font-size="10" fill="#57606a" text-anchor="middle" font-weight="400" opacity="1">真机需 1w steps 起步</text>
<rect x="760.0" y="300.0" width="150.0" height="52.0" rx="10" fill="#f6f8fa" stroke="#8b949e" stroke-width="1.5"/>
<text x="835.0" y="330.6" font-size="13" fill="#1f2328" text-anchor="middle" font-weight="700" opacity="1">复现对照基线</text>
<path d="M700,130 C740,130 740,326 758,326" stroke="#8b949e" stroke-width="1.4" fill="none" stroke-dasharray="4 3"/>
<path d="M700,256 C740,256 740,326 758,326" stroke="#8b949e" stroke-width="1.4" fill="none" stroke-dasharray="4 3"/>
<path d="M700,326 C740,326 740,326 758,326" stroke="#8b949e" stroke-width="1.4" fill="none" stroke-dasharray="4 3"/>
<path d="M700,448 C740,448 740,326 758,326" stroke="#8b949e" stroke-width="1.4" fill="none" stroke-dasharray="4 3"/>
<path d="M700,544 C740,544 740,326 758,326" stroke="#8b949e" stroke-width="1.4" fill="none" stroke-dasharray="4 3"/>
<path d="M910.0,326.0 L948.0,326.0" stroke="#8b949e" stroke-width="1.8" fill="none" marker-end="url(#ah)"/>
<rect x="830.0" y="382.0" width="226.0" height="74.0" rx="10" fill="#ffe3e3" stroke="#f03e3e" stroke-width="1.5"/>
<text x="943.0" y="414.1" font-size="13" fill="#c92a2a" text-anchor="middle" font-weight="700" opacity="1">§12.4 benchmark 鸿沟</text>
<text x="943.0" y="433.0" font-size="13" fill="#c92a2a" text-anchor="middle" font-weight="700" opacity="1">论文分数 ≠ 真机可用</text>
<path d="M873,352 L873,380" stroke="#f03e3e" stroke-width="1.8" marker-end="url(#ah)"/>
</svg>